<svg id="Layer_1" data-name="Layer 1" xmlns="http://www.w3.org/2000/svg" viewBox="0 0 604.28 229.28"><title>footer-logo</title><path d="M9,9V95.59a107,107,0,0,0,44.75,86.92l50.05,35.72,50-35.72a107,107,0,0,0,44.75-86.92V9Z" fill="#fff" stroke="#fff" stroke-miterlimit="10" stroke-width="18"/><path d="M9,9V95.59a107,107,0,0,0,44.75,86.92l50.05,35.72,50-35.72a107,107,0,0,0,44.75-86.92V9H9" fill="#fff"/><path d="M152.31,136.74a28.08,28.08,0,0,1-2.38,6.65,27.56,27.56,0,0,1-2.93,4.55,23.26,23.26,0,0,1-2.11,2.43l-2.52,2.55-2.56-2.55a28.69,28.69,0,0,1-2.11-2.43,25,25,0,0,1-2.93-4.55,26.72,26.72,0,0,1-2.4-6.65,25.65,25.65,0,0,1-5.4,2.08,23.93,23.93,0,0,0,1.29,17,24.06,24.06,0,0,0,6.28-4.25A27.16,27.16,0,0,0,142.39,168a27.12,27.12,0,0,0,7.86-16.42,24.06,24.06,0,0,0,6.28,4.25,23.86,23.86,0,0,0,1.17-17.09,25.72,25.72,0,0,1-5.39-2" fill="#f11900"/><path d="M135.47,130.23a24.37,24.37,0,0,0,1,7.77,23.22,23.22,0,0,0,3.23,6.59,21.16,21.16,0,0,0,2.66,3.23,23.88,23.88,0,0,0,6.9-17.59,22.41,22.41,0,0,0,6.59,4.22,21.65,21.65,0,0,0,8.18,1.58,21.67,21.67,0,0,0-17-21.23,4.72,4.72,0,0,0-9.39,0,21.65,21.65,0,0,0-17,21.14,21.51,21.51,0,0,0,8.16-1.58,21.24,21.24,0,0,0,6.59-4.13" fill="#f11900"/><path d="M167.35,45.07a1.21,1.21,0,1,0-1.17-1.23v0a1.17,1.17,0,0,0,1.14,1.2h0" fill="#f11900"/><path d="M62.84,124.1a3.85,3.85,0,0,0-.41-2.47s-2.26,2.32-2.93,2.94a12.68,12.68,0,0,0-1.41,7c0,4.1,5.66,8.15,5.66,8.15a18.16,18.16,0,0,0-1.09-9.59,6.39,6.39,0,0,1,.18-6" fill="#f11900"/><path d="M75.45,124.65a29.41,29.41,0,0,0-5.4-1.26c.71,5.34,7.39,5.87,7.39,5.87l.62-2a1.43,1.43,0,0,0-.56-1.58,12.44,12.44,0,0,0-2-1.06" fill="#f11900"/><path d="M51.7,134.92a19.48,19.48,0,0,1,0-12.08c1-1.85,1.64-3.17,1-3.88a40.08,40.08,0,0,0-8.47-.67S44,121,45,121.93l2.38,2.37A14.82,14.82,0,0,0,46,133.42c.55,6.34,4.16,8.8,7.42,13.17a23.61,23.61,0,0,1,4,7.42,10,10,0,0,0,1.2-7.22c-1-4.16-5.48-7.68-7-11.87" fill="#f11900"/><path d="M9,9V95.59a107,107,0,0,0,44.75,86.92l50.05,35.72,50-35.72a107,107,0,0,0,44.75-86.92V9H9M95.24,128.85a16,16,0,0,0-3.63.76,7.39,7.39,0,0,0-2.12,1.06s-1.08,2,4.84,3.46l-.26,1a26.57,26.57,0,0,1-1.58,4,4.7,4.7,0,0,1-3.55,2.67l-1.12.18a11.13,11.13,0,0,1-1,2.11,3.74,3.74,0,0,1-1.44,1.35l-1.12-4.61a15.47,15.47,0,0,1-4.39-1,14.63,14.63,0,0,1-2.79-2.93,19.83,19.83,0,0,0-4.28,5.28A6.4,6.4,0,0,0,77.31,150h0a27.84,27.84,0,0,0,8.45,0,14.24,14.24,0,0,1-2.93,5.42,20.77,20.77,0,0,1-4.37,3.38,7.51,7.51,0,0,0-5.28-5.87A20.86,20.86,0,0,0,63,154.15l-12.09,4.64a17.7,17.7,0,0,0-6.12-9.09L44.19,157a17.58,17.58,0,0,1-4.4-15.28c.26-1.11-4.11,5.43-4.11,5.43a22.26,22.26,0,0,1,1.82-14.34c2.06-3.46,4.11-7.16,4.11-7.16A15.21,15.21,0,0,1,39.44,115a95.13,95.13,0,0,1,18.33,0c10.11,1,15.42,1.46,16.89,2.93l6.12,6.16a18,18,0,0,1,8.33,1.05,19.49,19.49,0,0,1,6.28,3.64ZM15.33,15.33h85.28v77.1H15.33Zm129.41,9.21,11.73,11.73a16.57,16.57,0,0,1,5,13.61l1.85-1.82V43.92a4.23,4.23,0,0,1,4-4.22h4.13V56.39a16.7,16.7,0,0,1-16.71,16.68H146.5L138,81.4h-8.24L138,73.1l10.26-10.23h-6a16.69,16.69,0,0,1-16.69-16.69h17.45A16.64,16.64,0,0,1,144.74,24.54Zm5.4,152.81L107,208.17V98.76h85A100.52,100.52,0,0,1,150.14,177.35Z" fill="#f11900"/><path d="M76.06,29.32v11H64v-11H52v11H39.91v-11l-12,2.58V78.44H88.17V31.9L76.06,29.32M46.45,65.18h-8.8V56.83a4.49,4.49,0,0,1,8.8,0Zm16,0h-9V56.83a4.49,4.49,0,0,1,9,0Zm16,0h-9V56.83a4.49,4.49,0,0,1,9,0Z" fill="#f11900"/><polyline points="239.84 9 271.51 9 271.51 17.04 249.46 17.04 249.46 28.15 269.98 28.15 269.98 36.18 249.46 36.18 249.46 54.36 239.84 54.36 239.84 9" fill="#fff"/><path d="M307.61,37.24c0,10.32-6.19,17.92-17,17.92s-16.72-7.6-16.72-17.6,6.4-18,17.19-18c10-.12,16.54,7,16.54,17.65m-24.17,0c0,6.6,2.94,10.47,7.36,10.47s7.25-3.87,7.25-10.41c0-7.1-2.64-10.44-7.36-10.44s-7.25,3.28-7.25,10.44Z" fill="#fff"/><path d="M312.47,29.53V20.26h9.27c.15.79.26,4.14.26,5.87a11,11,0,0,1,10.94-6.78v9.12c-6.86-.17-10.94,1.67-10.94,11V54.36h-9.47l-.06-24.83" fill="#fff"/><path d="M334.7,20.26H340V11.05h9.41v9.21h6.72v7.1h-6.72V44.22c0,2.55.79,3.55,3.61,3.55h2.11v6.45a20.92,20.92,0,0,1-6.3.64c-6.66,0-8.8-3.55-8.8-9.53v-18h-5.28l0-7.1" fill="#fff"/><polyline points="407.63 34.8 385.93 34.8 385.93 46.33 409.89 46.33 408.69 54.36 376.43 54.36 376.43 9 408.69 9 408.69 17.04 386.05 17.04 386.05 26.83 407.75 26.83 407.63 34.8" fill="#fff"/><path d="M415,29.53V20.26h9.3c0,.79.26,4.14.26,5.87a11,11,0,0,1,10.91-6.78v9.12c-6.83-.17-10.91,1.67-10.91,11V54.36H415L415,29.53" fill="#fff"/><path d="M438.83,6.3h9.47v8.42h-9.47Zm0,14h9.47v34.1h-9.47Z" fill="#fff"/><path d="M462.73,39.35c0,4.28,2.17,8.42,6.83,8.42a5.43,5.43,0,0,0,5.87-3.61h9.41a14.9,14.9,0,0,1-15.45,11c-11.24,0-16.13-8.39-16.13-17.33,0-10.74,5.48-18.36,16.48-18.36,11.73,0,15.66,8.47,15.66,17a17.92,17.92,0,0,1,0,2.93l-22.67,0m13.17-5.86c0-3.93-1.65-7.31-6.28-7.31s-6.3,3.11-6.72,7.31Z" fill="#fff"/><rect x="239.84" y="71.25" width="9.79" height="45.33" fill="#fff"/><path d="M257.64,91.11V82.49h9.15a41.78,41.78,0,0,1,.26,4.34,10.39,10.39,0,0,1,9.85-5.14c6.87,0,11.26,4.7,11.26,13.26v21.64h-9.38V96.06c0-3.87-1.23-6.62-5.45-6.62s-6.28,2.14-6.28,8.21v18.94h-9.41V91.11" fill="#fff"/><path d="M291.24,82.54h5.28V73.28h9.41v9.26h6.72v7.13h-6.72V106.5c0,2.58.8,3.58,3.61,3.58a18.57,18.57,0,0,0,2.11,0v6.45a20,20,0,0,1-6.3.68c-6.66,0-8.8-3.55-8.8-9.56V89.76h-5.28l0-7.22" fill="#fff"/><path d="M323.79,101.58c0,4.28,2.17,8.44,6.83,8.44a5.48,5.48,0,0,0,5.87-3.64h9.41a15,15,0,0,1-15.6,11c-11.26,0-16.13-8.36-16.13-17.3,0-10.73,5.46-18.39,16.45-18.39,11.73,0,15.66,8.51,15.66,17a20.61,20.61,0,0,1,0,2.94l-22.49,0M337,95.71c0-4-1.64-7.3-6.25-7.3s-6.33,2.93-6.71,7.3Z" fill="#fff"/><path d="M351.3,91.78V82.49h9.29c0,.79.27,4.16.27,6a11,11,0,0,1,10.94-6.81v9c-6.87-.21-10.94,1.64-10.94,11v14.87h-9.47l-.09-24.81" fill="#fff"/><path d="M375.2,91.11V82.49h9.15c.2.93.32,3.31.41,4.34a10.38,10.38,0,0,1,9.85-5.14c6.86,0,11.26,4.7,11.26,13.26v21.64h-9.41V96.06c0-3.87-1.23-6.62-5.46-6.62s-6.24,2.22-6.24,8.29v19h-9.5l-.06-25.57" fill="#fff"/><path d="M440.79,107.76a73.91,73.91,0,0,0,.47,8.8h-9a13.43,13.43,0,0,1-.44-3.34c-1.26,1.9-3.58,4.13-9.62,4.13-8.24,0-11.73-5.39-11.73-10.67,0-7.77,6.19-11.38,16.19-11.38h4.87v-2c0-2.47-.85-4.81-5.28-4.81-3.93,0-4.87,1.64-5.25,4.13h-9c.47-6,4.22-10.94,14.66-10.94,9.06,0,14.08,3.64,14.08,11.73l.05,14.37m-9.2-6.71h-3.82c-5.86,0-7.82,1.79-7.82,5.07a4.4,4.4,0,0,0,4.21,4.58,5.62,5.62,0,0,0,.71,0c5.87,0,6.72-4.23,6.72-8.8Z" fill="#fff"/><path d="M444,82.54h5.25V73.28h9.41v9.26h6.72v7.13h-6.72V106.5c0,2.58.79,3.58,3.64,3.58a18.57,18.57,0,0,0,2.11,0v6.45a20.18,20.18,0,0,1-6.33.68c-6.66,0-8.8-3.55-8.8-9.56V89.76H444l0-7.22" fill="#fff"/><path d="M469.62,68.53h9.47V77h-9.47Zm0,14h9.47v34.1h-9.47Z" fill="#fff"/><path d="M517.62,99.46c0,10.36-6.18,17.92-17,17.92s-16.71-7.56-16.71-17.59,6.39-18,17.18-18c10-.12,16.51,7,16.51,17.65m-24.13,0c0,6.57,2.93,10.47,7.36,10.47s7.24-3.9,7.24-10.41c0-7.09-2.64-10.47-7.36-10.47s-7.24,3.32-7.24,10.5Z" fill="#fff"/><path d="M522.55,91.11V82.49h9.15a41.88,41.88,0,0,1,.38,4.34A10.44,10.44,0,0,1,542,81.69c6.86,0,11.26,4.7,11.26,13.26v21.64h-9.41V96.06c0-3.87-1.26-6.62-5.45-6.62s-6.28,2.22-6.28,8.29v19h-9.47l-.06-25.57" fill="#fff"/><path d="M588.15,107.76a73.91,73.91,0,0,0,.47,8.8h-9a13.45,13.45,0,0,1-.46-3.34c-1.24,1.9-3.55,4.13-9.59,4.13-8.24,0-11.73-5.39-11.73-10.67C557.8,98.91,564,95.3,574,95.3h4.87v-2c0-2.47-.88-4.81-5.28-4.81-4,0-4.87,1.64-5.28,4.13h-8.79c.47-6,4.22-10.94,14.66-10.94,9.06,0,14.07,3.64,14.07,11.73l-.11,14.37m-9.21-6.71H575.1c-5.87,0-7.83,1.79-7.83,5.07a4.4,4.4,0,0,0,4.21,4.58,4.54,4.54,0,0,0,.74,0c5.87,0,6.72-4.23,6.72-8.8Z" fill="#fff"/><rect x="594.77" y="68.53" width="9.5" height="48.06" fill="#fff"/><path d="M248.34,168.38l-3.49,10.46h-9.67l15.39-45.36h12.32L279,178.84H268.66l-3.75-10.46H248.34m14.46-8c-3.23-9.62-5.25-15.75-6.36-19.82-1.12,4.48-3.35,11.58-5.87,19.82Z" fill="#fff"/><path d="M311.3,167.85c-1.11,5.66-5.13,11.73-15.28,11.73s-16-7.33-16-17.6,6.1-18.09,16.51-18.09c11.47,0,14.66,8.3,14.66,12.11h-8.91a5.34,5.34,0,0,0-5.87-4.66c-4.34,0-6.77,3.75-6.77,10.32,0,7.3,2.64,10.59,6.72,10.59a5.86,5.86,0,0,0,5.86-4.46l9.12.06" fill="#fff"/><path d="M344.32,170a73.74,73.74,0,0,0,.47,8.79h-9a13.21,13.21,0,0,1-.44-3.37c-1.26,1.91-3.58,4.17-9.62,4.17-8.24,0-11.73-5.43-11.73-10.68,0-7.77,6.19-11.38,16.19-11.38H335V155.5c0-2.43-.85-4.81-5.28-4.81-3.92,0-4.86,1.65-5.24,4.17h-8.95c.44-6.07,4.2-10.94,14.66-10.94,9.09,0,14.08,3.61,14.08,11.73l0,14.37m-9.21-6.72H331.3c-5.87,0-7.83,1.76-7.83,5.08a4.4,4.4,0,0,0,4.22,4.57,4.26,4.26,0,0,0,.71,0c5.86,0,6.71-4.22,6.71-8.8Z" fill="#fff"/><path d="M382.29,130.78v48.06h-9c-.2-1.05-.41-2.93-.47-3.57a10.28,10.28,0,0,1-9.68,4.37c-8.62,0-14.07-6.92-14.07-17.6S354.93,144,364.52,144c5,0,7.57,1.79,8.3,3.28V130.78h9.47M366,172c6.45,0,7.24-5.39,7.24-10.26,0-5.87-.85-10.27-7-10.27-4.92,0-7.42,3.9-7.42,10.33S361.36,172,366,172Z" fill="#fff"/><path d="M396.63,163.83c0,4.28,2.17,8.42,6.84,8.42a5.42,5.42,0,0,0,5.86-3.61h9.41a14.9,14.9,0,0,1-15.6,11c-11.23,0-16.13-8.39-16.13-17.33,0-10.74,5.49-18.36,16.48-18.36,11.73,0,15.66,8.47,15.66,17a17.92,17.92,0,0,1,0,2.93l-22.52,0M409.8,158c0-3.93-1.64-7.3-6.28-7.3s-6.3,3.1-6.71,7.3Z" fill="#fff"/><path d="M424.11,153.57v-8.8h9c0,.85.32,2.76.38,4.08A10.74,10.74,0,0,1,443,144a9,9,0,0,1,8.8,5.19A11.91,11.91,0,0,1,462.32,144c5.86,0,10.79,3.69,10.79,12.49v22.4h-9.3v-21.2c0-3.11-1.11-6.13-5-6.13s-5.51,2.64-5.51,7.83v19.5H444V158c0-3.49-.85-6.4-4.87-6.4s-5.66,2.38-5.66,8.24v19h-9.35V153.57" fill="#fff"/><path d="M485,144.74c3.49,11.73,6.56,22.26,7.09,25.4.71-3.41,2.76-11.06,6.78-25.4h9.41L496.8,179.93c-3.22,9.82-5.86,12.7-14.13,12.7a32.52,32.52,0,0,1-4.43-.24v-7.71a19.85,19.85,0,0,0,2.44.15,6,6,0,0,0,6.53-4.93l-12.46-35.19,10.24,0" fill="#fff"/></svg>