<svg width="18" height="18" viewBox="0 0 18 18" fill="none" xmlns="http://www.w3.org/2000/svg">
<path d="M17.7222 9C17.7222 4.1836 13.8164 0.277737 8.99998 0.277737C4.18357 0.277737 0.27771 4.1836 0.27771 9C0.27771 13.8164 4.18357 17.7223 8.99998 17.7223C13.8164 17.7223 17.7222 13.8164 17.7222 9Z" fill="#878DFF"/>
<path d="M13.8023 6.07852C13.5984 5.54766 13.1801 5.63203 12.7266 5.72344C12.4559 5.77969 11.25 6.13125 9.34804 8.14219C8.55702 8.97539 8.03671 9.63984 7.69218 10.1461C7.48124 9.88945 7.24218 9.61172 6.98906 9.36211C6.2121 8.58516 5.34374 8.05078 5.30859 8.02969C4.94648 7.8082 4.47187 7.9207 4.24687 8.28633C4.02538 8.64844 4.13788 9.12305 4.49999 9.34805C4.50703 9.35156 5.25234 9.81211 5.89218 10.4555C6.54609 11.1094 7.14023 11.9953 7.14726 12.0059C7.2914 12.2238 7.53398 12.3504 7.79062 12.3504C7.83281 12.3504 7.87851 12.3469 7.92421 12.3398C8.22656 12.2871 8.46562 12.0621 8.53945 11.7668C8.54296 11.7598 8.84882 10.9125 10.4625 9.21094C11.7633 7.83633 12.6316 7.40039 12.934 7.28086C12.9375 7.28086 12.9375 7.28086 12.9445 7.28086C12.9445 7.28086 12.9551 7.27734 12.9726 7.2668C13.0254 7.2457 13.0535 7.23867 13.0535 7.23867C13.0394 7.24219 13.0324 7.24219 13.0324 7.24219V7.23867C13.173 7.17891 13.4332 7.06641 13.4367 7.06289C13.8269 6.89414 13.957 6.47227 13.8023 6.07852Z" fill="white"/>
</svg>
