<svg id="Layer_1" data-name="Layer 1" xmlns="http://www.w3.org/2000/svg" xmlns:xlink="http://www.w3.org/1999/xlink" viewBox="0 0 64.65 71.35"><defs><clipPath id="clip-path" transform="translate(0 0)"><rect width="64.65" height="71.35" fill="none"/></clipPath></defs><title>logo</title><g clip-path="url(#clip-path)"><path d="M0,0V29.53A36.53,36.53,0,0,0,15.26,59.17L32.33,71.35,49.41,59.17A36.49,36.49,0,0,0,64.65,29.53V0Z" transform="translate(0 0)" fill="#fff"/><path d="M48.88,43.56a9.74,9.74,0,0,1-1.8,3.82,8.08,8.08,0,0,1-.72.83l-.87.87-.87-.87a8,8,0,0,1-.71-.83,9.32,9.32,0,0,1-1-1.55,9.18,9.18,0,0,1-.81-2.27,9.33,9.33,0,0,1-1.84.71,8.1,8.1,0,0,0,.4,5.83,8.24,8.24,0,0,0,2.14-1.45,9.24,9.24,0,0,0,2.68,5.6,9.24,9.24,0,0,0,2.68-5.6,8.47,8.47,0,0,0,2.15,1.45,8.16,8.16,0,0,0,.41-5.83,8.06,8.06,0,0,1-1.84-.71" transform="translate(0 0)" fill="#f11900"/><path d="M43.13,41.34a8.22,8.22,0,0,0,2.36,6,7.39,7.39,0,0,0,.91-1.1,8,8,0,0,0,1.45-4.9,7.52,7.52,0,0,0,2.25,1.44,7.36,7.36,0,0,0,2.78.54,7.39,7.39,0,0,0-5.79-7.21,1.61,1.61,0,0,0-1.78-1.42,1.6,1.6,0,0,0-1.42,1.42,7.39,7.39,0,0,0-5.79,7.21,7.32,7.32,0,0,0,5-2Z" transform="translate(0 0)" fill="#f11900"/><path d="M54,12.3a.41.41,0,1,0-.41-.41.4.4,0,0,0,.39.41h0" transform="translate(0 0)" fill="#f11900"/><path d="M18.41,39.25a1.43,1.43,0,0,0-.14-.84s-.78.79-1,1a4.25,4.25,0,0,0-.49,2.37c0,1.4,1.93,2.78,1.93,2.78a6.1,6.1,0,0,0-.37-3.27,2.17,2.17,0,0,1,.07-2" transform="translate(0 0)" fill="#f11900"/><path d="M22.66,39.44A9.57,9.57,0,0,0,20.83,39c.23,1.82,2.51,2,2.51,2l.21-.68a.47.47,0,0,0-.19-.53,3.81,3.81,0,0,0-.7-.35" transform="translate(0 0)" fill="#f11900"/><path d="M14.56,42.94a6.77,6.77,0,0,1,0-4.13c.33-.62.56-1.08.33-1.31A13.74,13.74,0,0,0,12,37.27s-.05.92.28,1.24l.8.81a5,5,0,0,0-.45,3.1c.19,2.16,1.42,3,2.53,4.5a7.9,7.9,0,0,1,1.38,2.53A3.34,3.34,0,0,0,16.91,47c-.3-1.43-1.83-2.63-2.35-4.06" transform="translate(0 0)" fill="#f11900"/><path d="M0,0V29.53A36.53,36.53,0,0,0,15.26,59.17L32.33,71.35,49.41,59.17A36.49,36.49,0,0,0,64.65,29.53V0ZM29.41,40.87a4.81,4.81,0,0,0-1.24.26,2.89,2.89,0,0,0-.73.35s-.36.7,1.65,1.19L29,43a11.11,11.11,0,0,1-.53,1.35,1.62,1.62,0,0,1-1.22.91l-.38.06a3.86,3.86,0,0,1-.32.72,1.3,1.3,0,0,1-.5.46l-.37-1.57a5.13,5.13,0,0,1-1.5-.35,4.74,4.74,0,0,1-1-1,6.46,6.46,0,0,0-1.45,1.8A2.15,2.15,0,0,0,23.22,48h0a9.27,9.27,0,0,0,2.88,0,5.06,5.06,0,0,1-.91,2,7.36,7.36,0,0,1-1.54,1.11,2.54,2.54,0,0,0-1.8-2,7.12,7.12,0,0,0-3.48.42L14.28,51.1A6,6,0,0,0,12.19,48L12,50.5a6,6,0,0,1-1.49-5.21c.08-.38-1.4,1.85-1.4,1.85a7.58,7.58,0,0,1,.62-4.89c.69-1.18,1.39-2.44,1.39-2.44a5.21,5.21,0,0,1-.74-3.63,32.63,32.63,0,0,1,6.25,0c3.46.33,5.27.5,5.76,1l2.06,2a6.2,6.2,0,0,1,2.83.37,6.52,6.52,0,0,1,2.17,1.24Zm1.83-12.42H2.17V2.16H31.25Zm15-23.15,4,4a5.67,5.67,0,0,1,1.64,4.62l.62-.62V11.91a1.44,1.44,0,0,1,1.44-1.44h1.47v5.69a5.69,5.69,0,0,1-5.69,5.69H46.89l-2.84,2.84H41.2L44,21.84l3.49-3.5H45.46a5.68,5.68,0,0,1-5.69-5.67h6A5.68,5.68,0,0,1,46.3,5.3Zm1.84,52.11L33.41,67.92V30.61H62.46a34.34,34.34,0,0,1-14.32,26.8Z" transform="translate(0 0)" fill="#f11900"/><path d="M22.87,6.93v3.76H18.76V6.93H14.65v3.76H10.54V6.93l-4.13.88V23.68H27V7.81ZM12.77,19.15h-3V16.31a1.53,1.53,0,0,1,3,0Zm5.46,0H15.18V16.31a1.53,1.53,0,0,1,3.05,0Zm5.46,0H20.64V16.31a1.53,1.53,0,0,1,3.05,0Z" transform="translate(0 0)" fill="#f11900"/></g></svg>