<?xml version="1.0" encoding="utf-8"?>
<!-- Generator: Adobe Illustrator 22.0.1, SVG Export Plug-In . SVG Version: 6.00 Build 0)  -->
<svg version="1.1" id="Vrstva_2" xmlns="http://www.w3.org/2000/svg" xmlns:xlink="http://www.w3.org/1999/xlink" x="0px" y="0px"
	 viewBox="0 0 105.9 369.9" style="enable-background:new 0 0 105.9 369.9;" xml:space="preserve">
<style type="text/css">
	.st0{fill:#F11900;}
</style>
<path class="st0" d="M105.9,52.9C105.9,23,81-1.1,50.8,0C23.3,1.1,0.9,23.6,0,51.1C-0.5,68,6.8,83.2,18.6,93.3
	c17.9,15.2,28.8,25.2,29,48.7c0,1.7,0,2.7,0.1,2.9c0,0,2,225,5.2,225c3.3,0,5.2-225,5.2-225c0-0.2,0-0.8,0-1.8
	c0.3-23.7,10.6-34.3,28.7-49.6C98.5,83.8,105.9,69.2,105.9,52.9z"/>
</svg>
