<?xml version="1.0" encoding="utf-8"?>
<!-- Generator: Adobe Illustrator 22.0.1, SVG Export Plug-In . SVG Version: 6.00 Build 0)  -->
<svg version="1.1" id="Layer_1" xmlns="http://www.w3.org/2000/svg" xmlns:xlink="http://www.w3.org/1999/xlink" x="0px" y="0px"
	 viewBox="0 0 58 58" style="enable-background:new 0 0 58 58;" xml:space="preserve">
<style type="text/css">
	.st0{fill:#F11900;}
	.st1{fill:none;}
</style>
<path class="st0" d="M49.5,8.5C43.8,2.8,36.4,0,29,0S14.1,2.8,8.5,8.5c-11.3,11.3-11.3,29.7,0,41C14.1,55.1,21.6,58,29,58
	s14.8-2.8,20.5-8.5C60.8,38.2,60.8,19.8,49.5,8.5z M47.4,47.4c-10.2,10.1-26.6,10.1-36.8,0c-10.1-10.2-10.1-26.7,0-36.8
	C15.7,5.5,22.3,3,29,3c6.6,0,13.3,2.5,18.4,7.6C57.5,20.7,57.5,37.3,47.4,47.4z"/>
<polygon class="st1" points="30.5,27.5 38.2,27.5 38.2,17.3 24.1,17.3 24.1,27.5 27.5,27.5 "/>
<path class="st0" d="M38.5,27.5h-0.3h-7.7h-3h-3.4h-4.6c-0.9,0-1.5,0.6-1.5,1.5c0,0.8,0.6,1.5,1.5,1.5h1.7h6.3h3H37h1.5
	c0.8,0,1.5-0.7,1.5-1.5C40,28.1,39.3,27.5,38.5,27.5z"/>
</svg>
