<svg width="530" height="78" viewBox="0 0 530 78" fill="none" xmlns="http://www.w3.org/2000/svg">
<path d="M528.237 51.2007C527.382 50.9905 526.457 51.2952 525.67 50.98C524.883 50.6647 524.138 50.1393 523.351 49.8345C522.593 49.4537 521.812 49.1446 521.015 48.9097C520.159 48.7521 519.304 48.4893 518.542 48.2582C518.033 48.0445 517.549 47.7476 517.105 47.3754C516.249 47.2808 515.333 47.2073 514.469 47.1757C513.605 47.1442 512.878 47.0811 512.039 46.9866C511.252 47.1967 509.626 47.2703 508.83 47.47C508.061 47.6012 507.28 47.6012 506.511 47.47C505.715 47.47 504.902 48.5209 504.115 48.5734C503.328 48.626 502.532 48.132 501.745 48.1531C500.958 48.1741 500.171 48.2581 499.375 48.2476C498.541 48.2011 497.72 47.9845 496.945 47.6066C496.174 47.2493 495.233 47.5015 494.437 47.1757C493.642 46.8499 492.983 45.4523 492.17 45.5468C491.343 45.6036 490.52 45.723 489.705 45.9041C488.927 46.1038 488.225 46.5557 487.446 46.7869C486.668 47.0181 485.915 47.3334 485.136 47.512C484.332 47.6647 483.539 47.8966 482.766 48.2056C482.021 48.5419 481.191 48.6575 480.447 48.9938C479.702 49.3301 479.189 50.6437 478.333 50.8434C477.497 50.8624 476.662 50.7422 475.852 50.486C475.536 50.4709 475.22 50.5026 474.91 50.5806H474.654H474.508C474.311 50.5806 474.106 50.6647 473.909 50.6857C472.386 50.9695 470.743 51.1796 469.023 51.3583L468.775 51.5369C468.031 51.9573 467.32 52.5878 466.576 52.9451C465.821 53.5025 464.997 53.907 464.137 54.1432C463.35 54.2062 462.52 52.9977 461.724 52.9977C460.928 52.9977 460.133 52.9977 459.337 52.9977C458.541 52.9977 457.702 52.798 456.907 52.8716C456.111 52.9451 455.341 53.4601 454.519 53.313C454.173 53.2356 453.834 53.1123 453.509 52.9451C452.525 53.1133 451.576 53.3024 450.677 53.5231C447.982 54.1957 444.756 55.11 441.419 56.0768C441.156 56.2861 440.912 56.5292 440.691 56.8019C440.092 57.527 439.69 58.5674 439.091 59.2926C438.492 60.0177 437.38 60.1017 436.567 60.4065C435.779 60.5764 434.977 60.6293 434.179 60.5641C433.375 60.6272 432.571 60.8058 431.758 60.8269C430.945 60.8479 430.183 61.7516 429.405 61.9408C428.626 62.13 427.745 61.4784 426.932 61.4889C426.119 61.4994 425.306 61.4259 424.501 61.4889C423.694 61.6114 422.901 61.8513 422.14 62.2035C421.583 62.3822 420.95 62.4242 420.368 62.6134L419.641 63.0022C418.982 63.5066 418.443 64.3053 417.776 64.7782C417.129 65.4098 416.411 65.9231 415.645 66.302C414.875 66.5437 413.985 66.302 413.215 66.5122C412.445 66.7224 409.963 68.1831 409.963 68.1831C409.535 67.9426 409.059 67.8622 408.594 67.9519C407.815 68.0991 407.08 68.5825 406.301 68.7611C405.597 68.7738 404.894 68.7246 404.196 68.614C399.917 69.833 395.639 71.3673 391.309 72.145L390.026 73.0593C389.255 73.5952 388.254 72.8806 387.458 72.9542C386.672 73.0538 385.879 73.0327 385.097 72.8911C384.284 72.723 383.385 73.0067 382.59 72.7545C381.794 72.5023 380.878 72.5864 380.108 72.3762C379.258 72.1829 378.439 71.8283 377.678 71.3253C377.472 71.1524 377.3 70.9264 377.173 70.6632C373.81 69.396 370.353 68.5406 366.853 68.1096C365.142 67.9835 363.508 67.7312 361.839 67.416L361.266 67.6577C361.06 67.4811 360.845 67.3197 360.624 67.1743C357.201 66.4597 353.778 65.5349 350.304 64.9148C349.866 64.9304 349.43 65.0008 349.004 65.125C348.297 65.5415 347.534 65.7944 346.753 65.8712C346.034 65.7871 345.367 64.9884 344.648 64.9148C343.929 64.8413 343.151 65.9657 342.423 65.8712C341.696 65.7766 341.011 65.7976 340.275 65.7766C339.54 65.7556 338.983 64.2318 338.239 63.8745C337.494 63.5172 336.587 63.8219 335.886 63.4856C334.679 62.9653 333.447 62.5371 332.198 62.2035H331.102C330.503 62.4978 329.922 63.3175 329.314 63.349C328.706 63.3805 327.834 63.0653 327.106 63.0968C326.379 63.1283 325.814 63.948 325.121 64.568C324.428 65.1881 323.889 65.7766 323.273 66.3966C322.657 67.0166 321.647 66.9641 320.928 67.2478C320.209 67.5316 319.362 68.2987 318.481 68.0465C318.045 67.895 317.631 67.6571 317.257 67.3424C315.418 68.3933 313.603 69.3811 311.858 70.1483C311.39 70.607 310.945 71.0983 310.523 71.6196C309.898 72.4918 306.647 73.2695 305.885 73.4166C305.124 73.5637 304.328 73.1223 303.575 73.2274C302.134 73.3372 300.688 73.1525 299.296 72.681C297.822 72.0322 296.286 71.6155 294.727 71.4409C293.965 71.4409 293.015 71.2517 292.28 71.7352C291.544 72.2186 291.218 73.3325 290.568 73.8369C289.918 74.3414 288.857 73.8369 288.164 74.0156C287.471 74.1943 286.572 74.9929 285.785 74.6146C284.998 74.2363 284.373 73.7108 283.654 73.3325C282.935 72.9542 282.234 71.8613 281.506 71.9348C280.779 72.0084 280.112 72.9016 279.41 72.9857C278.708 73.0698 273.523 74.436 272.872 74.9719C272.146 75.5289 271.398 76.041 270.63 76.5062C270.63 76.5062 268.012 76.0754 267.276 75.9177C266.54 75.7601 265.265 75.5709 264.546 75.4343C263.786 75.2486 263.009 75.192 262.236 75.2662C261.534 75.3045 260.83 75.28 260.131 75.1926C259.412 75.1926 258.676 76.5483 257.949 76.5272C257.376 76.5272 256.76 75.655 256.178 75.3607L254.903 75.5499C254.516 75.7846 254.099 75.934 253.671 75.9913C252.96 75.9913 252.259 76.5588 251.54 76.5483C251.059 76.4699 250.592 76.2885 250.162 76.0123H249.803C249.443 76.0123 249.093 76.0123 248.759 76.0123C248.308 76.3601 247.829 76.6489 247.33 76.874C246.611 77.0737 241.34 77.6412 240.647 77.368C239.954 77.0947 239.338 76.4537 238.636 76.1804C237.985 75.9051 237.305 75.7458 236.617 75.7075C235.889 75.7075 234.127 75.3923 234.127 75.3923C233.515 75.8211 232.87 76.1732 232.201 76.4432C231.474 76.5584 230.738 76.5584 230.011 76.4432C229.248 76.3666 228.481 76.4054 227.726 76.5588C227.007 76.7374 226.229 76.6428 225.51 76.811C224.791 76.9791 225.099 77.8619 224.38 77.7778C223.661 77.6937 221.984 77.2734 221.257 77.2313C220.53 77.1893 219.785 78.0405 219.058 77.9985C218.33 77.9565 217.629 77.41 216.919 77.3259C216.093 77.3227 215.279 77.0853 214.54 76.6323C213.889 76.1279 213.573 76.3171 212.922 75.8126C212.272 75.3082 212.486 75.4869 211.742 75.4133C210.997 75.3397 209.773 74.3624 209.029 74.8668C208.285 75.3713 207.318 74.3939 206.642 74.8668C206.221 75.1533 205.872 75.5747 205.632 76.0859C204.465 76.0023 203.304 75.8161 202.158 75.5289C201.422 75.2346 200.592 75.1926 199.856 74.8878C199.072 74.5823 198.244 74.4786 197.426 74.5831C196.707 74.6882 196.005 74.8248 195.304 74.9194C194.602 75.0139 193.9 75.3082 193.19 75.3397C192.48 75.3713 191.718 76.0859 190.991 76.0018C190.264 75.9177 189.519 74.8668 188.783 75.056C188.047 75.2451 187.423 75.8757 186.713 76.1069C186.013 76.4379 185.278 76.6432 184.531 76.7164C183.829 76.6218 183.23 75.6655 182.528 75.5079C181.826 75.3502 181.151 75.0245 180.457 74.8773C179.764 74.7302 179.003 74.6987 178.301 74.6041C177.582 74.6403 176.866 74.4788 176.205 74.1312C175.049 74.1312 173.911 74.0156 172.782 73.858C171.267 73.6478 169.761 73.322 168.264 72.9437C168.16 73.0157 168.047 73.0655 167.93 73.0908C167.194 73.1959 166.407 72.5023 165.705 72.3131C165.123 72.1819 164.551 71.9921 163.994 71.7457C160.665 70.6948 157.362 69.6439 154.034 68.8032C150.701 67.8865 147.471 66.4749 144.416 64.5996C144.03 64.505 143.654 64.4209 143.277 64.3158C142.598 64.0704 141.942 63.7394 141.318 63.328C140.64 63.0187 139.933 62.8174 139.213 62.729C138.52 62.5713 137.792 62.5713 137.091 62.4452C136.42 62.1914 135.769 61.8607 135.148 61.4574C134.541 61.2157 133.523 61.4574 132.966 60.8058C132.41 60.1543 131.948 59.5658 131.426 58.9983C130.904 58.4308 131.212 59.177 130.528 59.1559C129.586 59.1559 128.722 58.4729 127.755 58.9142C126.995 59.3612 126.16 59.5843 125.316 59.5658C124.332 59.5132 122.869 58.063 122.065 57.464C121.154 56.7681 120.195 56.1737 119.198 55.688C118.297 55.2889 117.365 55.0003 116.417 54.8262C115.502 54.6476 114.595 54.3849 113.688 54.1957C112.781 54.0065 111.848 54.1957 111.001 53.7543C110.154 53.313 109.409 52.6089 108.579 52.0939C108.322 51.9468 108.074 51.7786 107.826 51.621C106.32 51.3793 104.968 51.1271 103.907 50.8434C102.709 50.5176 101.511 50.1498 100.313 49.7925C99.8772 49.9897 99.4275 50.1374 98.9696 50.2338C98.2595 50.4094 97.5302 50.4343 96.8133 50.3074C96.1544 50.0972 95.641 49.2565 94.9906 49.0043C94.3403 48.7521 93.4846 49.288 92.8257 49.0043C92.1668 48.7205 85.9802 46.6923 84.9362 46.4716C83.8923 46.2509 83.0024 44.9899 82.0012 44.6851C80.9813 44.5058 79.9501 44.4425 78.9207 44.4959C78.5682 44.4601 78.2205 44.3719 77.8853 44.2332C70.1327 44.2332 62.9106 47.1757 55.9111 46.335C54.6515 46.1769 53.4076 45.8672 52.1974 45.4102C51.4443 45.8702 50.6667 46.267 49.8699 46.5977C48.9457 46.7869 47.6707 45.5468 46.7894 45.3472C45.7681 45.0185 44.8128 44.4354 43.9827 43.6342L42.4253 42.163C42.4253 42.163 38.6603 42.4047 37.7276 42.4992C36.7949 42.5938 35.6397 41.1121 34.7326 41.2487C33.8256 41.3853 31.7976 42.3942 30.9077 42.2996L25.5596 43.4345L23.4717 45.0739C8.60829 46.377 14.5468 43.9074 0 45.1055V0.83123H530V51.2742C529.412 51.2935 528.823 51.2689 528.237 51.2007Z" fill="#E38346" fill-opacity="0.9"/>
</svg>
