<svg width="530" height="78" viewBox="0 0 530 78" fill="none" xmlns="http://www.w3.org/2000/svg">
<path d="M528.47 9.28587C527.673 9.28587 526.828 8.02409 526.024 8.05914C525.219 8.09419 524.43 8.35706 523.633 8.32201C522.747 8.5132 521.894 9.16819 521.147 10.2322L519.649 11.9847C516.42 12.6591 513.174 12.8173 509.935 12.4578C509.661 12.2428 509.378 12.0844 509.09 11.9847C508.84 11.9415 508.587 11.9769 508.341 12.0898C504.58 10.9682 505.297 9.96933 501.464 9.40854C500.784 9.30318 500.109 9.06269 499.448 8.69003C498.652 8.09419 497.958 7.04271 497.177 6.55202C496.396 6.06133 495.496 7.46331 494.683 7.35816C493.854 6.90784 493.065 6.15558 492.348 5.13253C492.348 5.13253 490.81 5.97371 490.037 6.21905C489.265 6.4644 488.531 7.14786 487.766 7.35816C487.001 7.56845 486.236 8.09419 485.471 8.32201C485.315 8.37681 485.16 8.45885 485.009 8.56736C483.814 8.56736 482.714 8.56736 481.774 8.76013C481.477 8.37075 481.139 8.15927 480.794 8.14677C480.047 8.47123 479.278 8.47123 478.531 8.14677C477.734 7.6736 476.937 7.28806 476.212 6.79737C475.42 6.51003 474.613 6.51003 473.821 6.79737C473.024 6.88499 472.228 6.5345 471.431 6.65717C470.634 6.77984 469.837 6.14896 469.04 6.3242C468.243 6.49945 467.486 7.42826 466.713 7.70865C465.888 8.14731 465.128 9.04664 464.506 10.3198C463.861 11.4764 463.088 12.4754 462.434 13.632C461.837 14.8972 461.097 15.7869 460.291 16.2081C459.541 16.5604 458.783 16.8178 458.02 16.9792C457.223 16.9792 456.49 17.575 455.725 17.6802C454.96 17.7853 454.091 16.6287 453.334 16.9792C452.594 17.4931 451.829 17.8223 451.055 17.9606C450.258 17.9606 449.461 18.9595 448.664 19.0296C447.899 18.9065 447.13 19.0544 446.385 19.4677C445.66 20.046 444.656 19.4677 443.995 20.2388C443.333 21.0099 442.608 21.7108 441.907 22.4469C441.531 22.9906 441.22 23.7235 440.999 24.5849C440.616 24.7251 440.258 24.8653 439.939 25.023C439.125 25.4153 438.326 25.9426 437.548 26.6002C436.855 26.9332 436.178 27.529 435.476 27.8094C434.775 28.0898 433.986 28.6506 433.229 29.0011C432.452 29.1374 431.685 29.4968 430.95 30.0701C430.241 30.8237 429.285 30.4907 428.56 31.2267C427.835 31.9628 427.324 33.7327 426.56 34.0307C425.75 34.1108 424.941 33.8734 424.169 33.3297C423.372 33.0142 422.48 33.575 421.683 33.1194C420.886 32.6637 420.145 31.2618 419.364 31.1566C418.583 31.0515 417.818 30.7711 417.045 30.6659C416.272 30.5608 415.451 29.9649 414.71 29.9474C413.969 29.9299 413.188 31.9277 412.423 32.103C411.682 32.3798 410.96 32.8565 410.272 33.5224C409.539 34.0832 408.535 33.1544 407.809 33.8379C407.084 34.5214 406.471 35.8357 405.73 36.414C404.988 36.9923 404.088 36.046 403.339 36.3264C402.59 36.6068 399.745 36.3264 398.956 36.3264C398.167 36.3264 392.717 34.5739 391.96 34.2234C391.203 33.8729 390.31 34.4863 389.569 33.943C388.828 33.3998 388.151 32.3308 387.402 31.805C386.631 31.469 385.851 31.2466 385.067 31.1391C384.334 30.8237 383.672 29.1413 382.931 29.0361C382.19 28.931 381.473 28.7207 380.74 28.4754C380.017 28.4683 379.298 28.2382 378.604 27.7919C377.875 27.3091 377.124 26.992 376.365 26.8456C375.632 26.5126 374.827 27.0208 374.086 26.7579C373.342 26.3797 372.61 25.8938 371.895 25.3034C371.194 24.8302 357.065 19.678 355.719 19.0471C355.009 18.1358 355.009 17.6451 355.009 17.6451C355.009 17.6451 353.264 17.908 350.914 18.1709C349.527 17.9956 348.292 17.8905 347.981 17.943C347.806 17.943 346.658 18.2059 344.961 18.5564C343.367 18.5564 341.925 18.5564 340.785 18.2935C336.69 17.4874 338.275 14.6659 334.195 15.4195C331.008 15.9978 327.366 20.5016 323.98 23.1479C323.696 23.0951 323.411 23.0951 323.127 23.1479C322.434 23.3757 321.701 23.0252 321.023 23.2705C320.346 23.5159 318.131 24.4447 317.445 24.4973C316.76 24.5498 317.238 25.4611 316.553 25.4786C315.868 25.4962 316.226 24.322 315.541 24.4622C314.856 24.6024 312.959 25.2508 312.959 25.2508C312.268 24.6164 311.55 24.135 310.815 23.8138C310.102 23.8329 309.391 24.0209 308.696 24.3746C307.899 24.5849 307.046 24.2519 306.25 24.5674C305.453 24.8828 304.799 26.8806 304.002 27.161C303.205 27.4414 302.313 26.092 301.5 26.2147C300.687 26.3373 299.906 25.7766 299.11 25.7766C298.251 26.2356 297.439 27.0504 296.719 28.1774C296.719 28.1774 296.432 27.4239 295.635 27.5641C294.838 27.7043 292.639 28.5455 291.818 28.7733C290.998 29.0011 290.113 27.9671 289.3 28.23C288.487 28.4929 287.659 28.6331 286.846 28.7908C286.334 29.012 285.862 29.5607 285.491 30.368C283.674 30.368 281.858 30.1928 279.985 30.0701C278.029 30.0352 276.073 30.2458 274.128 30.701C273.543 30.5009 272.951 30.3955 272.359 30.3855C271.561 30.2745 270.76 30.345 269.968 30.5958C269.172 30.8412 268.295 30.5082 267.482 30.7536C266.668 30.8126 265.853 30.6774 265.052 30.3505C264.246 30.3954 263.441 30.1889 262.661 29.7371C261.864 29.1588 261.131 28.4228 260.366 27.7568C259.587 27.1778 258.787 26.7382 257.976 26.4425C257.177 25.8899 256.394 25.2285 255.633 24.4622C254.836 23.8488 253.888 24.2694 253.091 23.7262C252.309 23.3004 251.506 23.0769 250.7 23.0602C249.909 22.7538 249.111 22.5432 248.31 22.4294C247.513 22.4294 246.716 22.9025 245.919 22.9025C245.095 22.8719 244.274 22.6843 243.465 22.3417C242.668 22.0263 241.775 20.747 240.931 21.1501C240.086 21.5531 240.477 22.9025 239.664 23.3056C238.851 23.7087 236.532 23.0953 235.719 22.9901C235.027 23.1529 234.327 22.9978 233.663 22.5345C232.867 21.7985 232.07 21.3603 231.273 20.6944C230.522 19.9444 229.707 19.5503 228.882 19.5378C228.043 19.7392 227.231 20.3051 226.492 21.2026C225.283 22.2219 224.013 22.8477 222.723 23.0602C222.013 23.0602 220.236 24.1818 219.535 23.6035C218.834 23.0252 218.045 23.2705 217.368 22.7448C216.69 22.2191 214.626 20.5542 214.626 20.5542C214.626 20.5542 206.036 21.9737 200.283 22.5695C199.661 22.5695 199.048 22.3242 198.426 22.3768C197.805 22.4294 197.04 22.2015 196.346 22.184C195.653 22.1665 194.809 22.9376 194.099 22.4118C193.39 21.8861 192.856 21.3253 192.171 20.8346C191.486 20.3439 189.78 21.483 189.063 21.5005C188.346 21.5181 185.159 20.0285 184.425 19.9233C183.692 19.8182 183.047 22.1665 182.409 20.8697C181.772 19.5728 181.27 20.379 180.72 19.1172C180.286 18.0015 179.721 17.1707 179.086 16.7163C178.409 16.2782 177.907 14.0876 177.198 13.6846C176.489 13.2815 174.528 13.8248 173.827 13.5093C173.126 13.1939 172.417 14.1928 171.731 14.035C171.025 13.6594 170.299 13.4769 169.572 13.4918C168.871 13.6846 168.13 13.667 167.42 13.9474C166.732 14.1667 166.037 14.2838 165.341 14.2979C164.647 14.2979 163.97 15.77 163.309 15.5947C162.647 15.4195 161.962 15.1742 161.293 14.9113C160.623 14.6484 159.962 14.9113 159.277 14.6835C158.609 14.4 157.924 14.3703 157.252 14.5958C156.567 14.9288 155.659 13.667 154.997 14.0526C154.336 14.4381 153.722 16.1555 153.037 16.2081C152.541 16.2073 152.046 16.2834 151.555 16.4359C149.961 16.5411 148.447 16.6462 146.885 16.4359C145.693 16.2831 144.506 15.973 143.331 15.5071C143.271 15.4094 143.207 15.3215 143.14 15.2442C142.44 14.6411 141.705 14.252 140.957 14.0876C140.295 13.8247 139.618 13.7547 138.965 13.4743C138.471 13.3877 137.976 13.3877 137.482 13.4743C136.633 13.2635 135.779 13.1757 134.924 13.2114C134.308 13.2524 133.695 13.4107 133.092 13.6846H132.9C132.231 13.5969 129.57 13.4392 128.916 13.4217C128.26 13.2104 127.591 13.318 126.956 13.7371C126.318 14.3154 125.673 14.9639 125.043 15.5772C123.662 16.3017 122.225 16.3436 120.836 15.6999C120.183 15.034 120.597 14.3154 119.943 13.632C118.943 12.9597 117.897 12.6751 116.852 12.7908C116.182 12.8959 112.07 8.23439 111.425 8.35706C110.628 8.35706 110.915 7.02519 110.134 7.58598C109.353 8.14677 107.512 9.33844 106.755 9.86418C105.947 10.1969 105.122 10.3029 104.301 10.1796C103.504 10.3023 102.779 11.3888 102.006 11.6166C101.233 11.8445 98.0696 12.2651 97.2967 12.4053C96.8744 12.4929 96.3962 12.6856 95.9181 12.7908L93.9419 11.7393C92.9299 10.1621 91.384 7.00767 90.7545 6.56955C89.2658 5.9531 87.7474 5.75874 86.2363 5.99123C85.4394 6.2541 84.7939 3.7656 83.9971 4.02847C83.2002 4.29134 82.4432 5.34282 81.6463 5.48302C80.8495 5.62322 80.0526 4.22125 79.3833 4.53669C78.8175 4.78203 78.3792 6.28915 77.8613 7.14786L76.6261 7.32311C76.1649 6.82098 75.6585 6.55157 75.144 6.5345C74.4348 6.76232 73.7654 6.90252 73.0562 7.00767C72.347 7.11281 71.6458 7.23548 70.9286 7.32311C70.2114 7.41073 69.5102 8.09419 68.8009 8.21687C68.059 8.269 67.3204 8.4625 66.5937 8.79518C65.8924 9.19825 65.3505 11.0734 64.6493 11.4414C63.9481 11.8094 63.1592 10.4425 62.434 10.425C61.7089 10.4074 60.9917 10.425 60.2825 10.5126C59.5733 10.6002 58.8721 11.7043 58.1629 11.8094L56.2345 12.1073H55.7484C55.0949 12.1073 54.7045 10.6528 54.0032 10.1621C52.3909 9.56763 50.761 9.23377 49.1265 9.1632C48.3854 9.1632 48.3296 10.5476 47.6443 11.5465C47.5605 11.6677 47.4693 11.7621 47.3734 11.8269C45.9517 11.7306 44.5288 11.7949 43.1102 12.0197C38.839 12.8258 35.2212 9.98685 30.9501 10.793C28.7472 11.0106 26.547 10.2538 24.4796 8.56736C23.603 7.7437 21.9535 4.41402 21.2921 4.62431C20.1885 4.49101 19.091 4.17467 18.0091 3.67798C16.8723 2.90585 15.7029 2.38916 14.5188 2.13581C14.0909 1.40238 13.5767 0.952517 13.0366 0.838989C12.3195 1.17544 11.6118 1.60258 10.917 2.11829C10.0086 2.64403 9.10812 1.5575 8.19173 1.36473C7.27534 1.17196 6.34301 2.36363 5.39475 2.06571C4.77347 1.6169 4.119 1.43252 3.46634 1.52245C3.0432 1.70551 2.61429 1.81682 2.1834 1.85542C1.45922 1.6499 0.730147 1.53872 0 1.52245L0 78H530V8.05914C529.528 8.66882 529.01 9.08451 528.47 9.28587Z" fill="#E38346" fill-opacity="0.9"/>
</svg>
