<svg id="Layer_1" data-name="Layer 1" xmlns="http://www.w3.org/2000/svg" viewBox="0 0 665.11 42.98"><path d="M665.11,43V31.84a23.54,23.54,0,0,1-2.75-.19,10.57,10.57,0,0,0-1.61.19,6.41,6.41,0,0,1-2.41-.31c-1.2-.17-2.42.5-3.52.4s-2.27-.73-3.42-.42a25.55,25.55,0,0,1-2.66.72,3.58,3.58,0,0,1-1.86-.74,22.23,22.23,0,0,1-4.38-.88,27.47,27.47,0,0,0-4.11-.54c-.83.12-2.9-1.78-4-2.25a20.63,20.63,0,0,0-8.11-1.27c-5.37.46-9.9-1.15-15.27-.7a52.1,52.1,0,0,1-5.35.11,1.5,1.5,0,0,0-.34.16c-.9.57-.92,1.35-1.86,1.37a43.12,43.12,0,0,1-6.11-.58c-.88-.28-1.37-1.09-2.2-1.11l-.61,0-2.42.17c-.89.06-1.76.71-2.65.74s-1.81.05-2.71.05-1.88-.8-2.78-.58-1.55,1.28-2.43,1.51a16.35,16.35,0,0,1-2.78.33c-.89.07-1.78.47-2.67.51s-1.77.12-2.67.18-1.73.14-2.62.27a4.34,4.34,0,0,1-1.83-.51l-1.55.1c-.65.45-1.2,1.35-1.91,1.49-.89.18-1.94-.62-2.83-.54s-2,.69-3,.83-1.81-1.27-2.81-1.12a21.81,21.81,0,0,1-5.67-.33c-.79-.25-2.73-2.05-4-3l-2.48-.6c-.6.06-1.2.17-1.73.22-1,.08-4.93.33-5.91.45s-1.89.75-2.88.82a12.22,12.22,0,0,0-3.08.18c-.95.33-3.29,1-4.23,1.3s-.63-.44-1.62-.44-6-2.59-6.81-2.53a11.39,11.39,0,0,1-3.89-.48c-.82-.39-.3-.8-1.11-1.18a12,12,0,0,0-5.28.07c-.8.35-1.61.72-2.41,1.05a5.69,5.69,0,0,1-2.46.18c-.84,0-4.18-.1-5-.15h-.24a13.27,13.27,0,0,1-2.3.27,24.56,24.56,0,0,1-3.21-.15,11.69,11.69,0,0,1-1.86,0c-.82-.16-1.67-.2-2.5-.35a10.42,10.42,0,0,1-2.74-.66,1.82,1.82,0,0,1-.23-.15,37.57,37.57,0,0,0-4.47-.53c-2-.09-3.91,0-5.86,0a13.13,13.13,0,0,1-1.86.13c-.86,0-1.57,1-2.46,1.23s-2-.5-2.83-.31a7.46,7.46,0,0,1-2.54-.05c-.85-.09-1.69,0-2.52-.13s-1.7-.28-2.54-.39-1.68.71-2.55.75a17.93,17.93,0,0,0-2.61.19c-.89.16-1.82.15-2.7.26a11.58,11.58,0,0,1-2.7-.3c-.87-.1-1.73.47-2.64.29s-3.35.12-4.22-.1-1.53-1.48-2.37-1.73a4.37,4.37,0,0,1-2.05-1.37c-.7-.68-1.43-.34-2.13-1s-1.62.6-2.53.54-4.91-.91-5.82-.9-3,.67-3.9.38-1.55-.61-2.41-.9-1.94.13-2.82.13-1.74-.14-2.62-.11-1.55-.11-2.33-.11c-7.23.34-18,1.15-18,1.15s-2.36-.91-3.24-1.22-1.88-.18-2.73-.49-3.11.33-4,.32a16.2,16.2,0,0,0-4.72,1,8.12,8.12,0,0,1-3,1,7.38,7.38,0,0,1-3-.66c-1-.37-2-.63-3-1.05a6.28,6.28,0,0,0-2.57-.26c-1-.06-3.91-.45-5-.18s-.57,1-1.58,1.23-2.16-.5-3.19-.68a17.78,17.78,0,0,0-3.08-.32c-1,0-2,.23-3,.27a27.52,27.52,0,0,1-3-.36,13,13,0,0,1-3-.38c-1-.31-2.19-.07-3.19-.41a24.22,24.22,0,0,0-2.93-1.14,18.63,18.63,0,0,1-3-.75c-1-.38-1.92-.8-2.88-1.13a10.78,10.78,0,0,0-3-.35,14.83,14.83,0,0,0-3.05-.23c-1,.14-2.09,0-3.12.09a14.58,14.58,0,0,1-3,.12,15.21,15.21,0,0,1-2.22-.18,64.3,64.3,0,0,1-7.35.36l-6.91-.17a3.33,3.33,0,0,1-1.7.9c-1,.09-2,.17-3.07.32s-2.15-.44-3.17-.31-3.77.66-4.79.69-1.26-.44-1.26-.44a8.75,8.75,0,0,1-3,1.37c-1,0-2-.33-3-.25s-2.14-.71-3.13-.54-1.83,1.3-2.83,1.48-2.06,0-3.07.11a12.48,12.48,0,0,1-2.66.32,13.66,13.66,0,0,1-2.69-.82s-2.38.37-3.24.45-.41-.59-1.27-.58-.26.54-1.12.56-3.64.57-4.49.7-1.76-.06-2.63.07a6.5,6.5,0,0,1-1.08,0c-4.25,1.51-8.86,4.08-12.82,4.41-5.12.43-3.13-1.18-8.27-1.64-1.43-.13-3.28-.17-5.24-.15l-3.78.35c-.4,0-2,0-3.69-.13-3,.15-5.14.3-5.14.3s0-.28-.89-.8c-1.69-.36-19.42-3.3-20.3-3.57a21.29,21.29,0,0,0-2.75-.83c-.93-.15-1.94.14-2.86-.05a14,14,0,0,1-2.81-.54,10,10,0,0,0-2.68-.39c-.92-.14-1.81-.25-2.75-.32s-1.76-1-2.68-1.2a22.15,22.15,0,0,1-2.93-.38c-.94-.3-1.78-.9-2.72-1.21s-2,0-3-.17S165.5,12,164.53,12,160,11.8,159,12s-2.08-.38-3-.05-1.7,1.08-2.6,1.47-2.17-.14-3.1.18a11.33,11.33,0,0,1-2.7.81c-1,.1-1.89,1.24-2.87,1.23s-1.95-.35-2.93-.41-1.93-.21-2.91-.28S137,14.06,136,13.79s-2.13.06-3.12-.12a8.57,8.57,0,0,0-3-.4c-1,.17-1.59,1.16-2.51,1.6s-2.09.23-3,.66a11.23,11.23,0,0,1-2.86.61c-1,.2-1.86.51-2.82.68s-1.73.5-2.6.69a21,21,0,0,1-3,.9c-.41.09-.86.17-1.34.25a3.55,3.55,0,0,1-1.14,1.22c-.88.42-1.75.8-2.62,1.27s-2.13.1-3,.43a9,9,0,0,1-2.86.25c-1,0-2,.61-3,.61a13,13,0,0,0-2.86.56c-1,.2-2-.46-3-.4s-1.92.36-2.89.4a25.17,25.17,0,0,0-2.85.44,5.85,5.85,0,0,0-2.69,1.47c-.82.66-1.79,1.23-2.6,1.89a6.14,6.14,0,0,1-2.77,1.49c-1,.16-1.91.68-2.91.79s-2-.25-3-.19-2-.13-3-.08a9.15,9.15,0,0,1-3,0c-1-.28-2-.5-2.92-.77a7.28,7.28,0,0,0-2.83,0,2.49,2.49,0,0,1-1.24-.35c-1.17.06-2.56.1-4.06.11a3.77,3.77,0,0,1-.58.14c-1,.13-1.91.43-2.87.55s-1.9.51-2.86.65-2.89.62-2.89.62a9.58,9.58,0,0,0-2.94-1.27c-1-.06-2.14.74-3.13.46s-1.87-.88-2.84-1.22a14.31,14.31,0,0,0-2.54-.41c-4.8-.32-3.91-.89-8.63-1.53a3.33,3.33,0,0,1-.94.06,6.11,6.11,0,0,1-1.06-.27A85.57,85.57,0,0,0,13,25.89l-1.88,1A7,7,0,0,1,8,28c-1,0-2,.12-3,.15s-2.05-.74-3.07-.7a5.66,5.66,0,0,0-1.92.7V43Z"/></svg>