<?xml version="1.0" encoding="utf-8"?>
<!-- Generator: Adobe Illustrator 22.0.1, SVG Export Plug-In . SVG Version: 6.00 Build 0)  -->
<svg version="1.1" id="Layer_1" xmlns="http://www.w3.org/2000/svg" xmlns:xlink="http://www.w3.org/1999/xlink" x="0px" y="0px"
	 viewBox="0 0 64.7 71.4" style="enable-background:new 0 0 64.7 71.4;" xml:space="preserve">
<style type="text/css">
	.st0{clip-path:url(#SVGID_2_);fill:#FFFFFF;}
	.st1{clip-path:url(#SVGID_2_);fill:#F11900;}
</style>
<g>
	<defs>
		<rect id="SVGID_1_" y="0" width="64.7" height="71.3"/>
	</defs>
	<clipPath id="SVGID_2_">
		<use xlink:href="#SVGID_1_"  style="overflow:visible;"/>
	</clipPath>
	<path class="st0" d="M0,0v29.5c0,11.8,5.7,22.8,15.3,29.6l17.1,12.2l17.1-12.2c9.6-6.8,15.2-17.9,15.2-29.6V0H0z"/>
	<path class="st1" d="M48.9,43.6c-0.3,1.4-0.9,2.7-1.8,3.8c-0.2,0.3-0.5,0.6-0.7,0.8l-0.9,0.9l-0.9-0.9c-0.3-0.3-0.5-0.5-0.7-0.8
		c-0.4-0.5-0.7-1-1-1.5c-0.4-0.7-0.6-1.5-0.8-2.3c-0.6,0.3-1.2,0.5-1.8,0.7c-0.6,1.9-0.5,4,0.4,5.8c0.8-0.4,1.5-0.9,2.1-1.4
		c0.2,2.1,1.2,4.1,2.7,5.6c1.5-1.5,2.5-3.5,2.7-5.6c0.6,0.6,1.4,1.1,2.1,1.4c0.9-1.8,1-3.9,0.4-5.8C50.1,44.1,49.5,43.9,48.9,43.6"
		/>
	<path class="st1" d="M43.1,41.3c0,0.9,0.1,1.8,0.4,2.7c0.4,1.3,1.1,2.4,2,3.3c0.3-0.3,0.6-0.7,0.9-1.1c0.5-0.7,0.9-1.4,1.1-2.2
		c0.3-0.9,0.4-1.8,0.3-2.7c0.7,0.6,1.4,1.1,2.3,1.4c0.9,0.4,1.8,0.5,2.8,0.5c0-3.5-2.4-6.5-5.8-7.2c-0.1-0.9-0.9-1.5-1.8-1.4
		c-0.7,0.1-1.3,0.7-1.4,1.4c-3.4,0.8-5.8,3.7-5.8,7.2C40,43.3,41.7,42.6,43.1,41.3L43.1,41.3z"/>
	<path class="st1" d="M54,12.3c0.2,0,0.4-0.2,0.4-0.4c0-0.2-0.2-0.4-0.4-0.4c-0.2,0-0.4,0.2-0.4,0.4C53.6,12.1,53.8,12.3,54,12.3
		C54,12.3,54,12.3,54,12.3"/>
	<path class="st1" d="M18.4,39.3c0-0.3,0-0.6-0.1-0.8c0,0-0.8,0.8-1,1c-0.4,0.7-0.6,1.5-0.5,2.4c0,1.4,1.9,2.8,1.9,2.8
		c0.2-1.1,0.1-2.2-0.4-3.3C18,40.6,18,39.9,18.4,39.3"/>
	<path class="st1" d="M22.7,39.4c-0.6-0.2-1.2-0.4-1.8-0.4c0.2,1.8,2.5,2,2.5,2l0.2-0.7c0.1-0.2,0-0.4-0.2-0.5
		C23.1,39.6,22.9,39.5,22.7,39.4"/>
	<path class="st1" d="M14.6,42.9c-0.4-1.3-0.4-2.8,0-4.1c0.3-0.6,0.6-1.1,0.3-1.3c-1-0.2-1.9-0.3-2.9-0.2c0,0-0.1,0.9,0.3,1.2
		l0.8,0.8c-0.5,1-0.6,2-0.4,3.1c0.2,2.2,1.4,3,2.5,4.5c0.6,0.8,1.1,1.6,1.4,2.5c0.4-0.7,0.6-1.6,0.4-2.4
		C16.6,45.6,15.1,44.4,14.6,42.9"/>
	<path class="st1" d="M0,0v29.5c0,11.8,5.7,22.8,15.3,29.6l17.1,12.2l17.1-12.2c9.6-6.8,15.2-17.9,15.2-29.6V0H0z M29.4,40.9
		c-0.4,0-0.8,0.1-1.2,0.3c-0.3,0.1-0.5,0.2-0.7,0.4c0,0-0.4,0.7,1.6,1.2L29,43c-0.1,0.5-0.3,0.9-0.5,1.3c-0.2,0.5-0.7,0.8-1.2,0.9
		l-0.4,0.1c-0.1,0.3-0.2,0.5-0.3,0.7c-0.1,0.2-0.3,0.4-0.5,0.5l-0.4-1.6c-0.5,0-1-0.2-1.5-0.3c-0.4-0.3-0.7-0.6-1-1
		c-0.6,0.5-1.1,1.1-1.5,1.8c-0.3,1.1,0.3,2.3,1.5,2.7c0,0,0,0,0,0c1,0.2,1.9,0.2,2.9,0c-0.2,0.7-0.5,1.4-0.9,1.9
		c-0.5,0.4-1,0.8-1.5,1.1c-0.2-1-0.9-1.7-1.8-2c-1.2-0.2-2.4,0-3.5,0.4l-4.1,1.6c-0.4-1.2-1.1-2.3-2.1-3.1L12,50.5
		c-1.3-1.4-1.9-3.3-1.5-5.2c0.1-0.4-1.4,1.8-1.4,1.8c-0.3-1.7-0.1-3.4,0.6-4.9c0.7-1.2,1.4-2.4,1.4-2.4c-0.7-1.1-0.9-2.4-0.7-3.6
		c2.1-0.2,4.2-0.2,6.3,0c3.5,0.3,5.3,0.5,5.8,1l2.1,2c1-0.1,1.9,0,2.8,0.4C28,39.9,28.8,40.3,29.4,40.9L29.4,40.9z M31.2,28.5H2.2
		V2.2h29.1L31.2,28.5z M46.2,5.3l4,4c1.2,1.2,1.8,2.9,1.6,4.6l0.6-0.6v-1.4c0-0.8,0.6-1.4,1.4-1.4h1.5v5.7c0,3.1-2.5,5.7-5.7,5.7
		h-2.8L44,24.7h-2.8l2.8-2.8l3.5-3.5h-2.1c-3.1,0-5.7-2.5-5.7-5.7v0h6C44.1,10.4,44.3,7.3,46.2,5.3L46.2,5.3z M48.1,57.4L33.4,67.9
		V30.6h29C62.1,41.3,56.8,51.2,48.1,57.4L48.1,57.4z"/>
	<path class="st1" d="M22.9,6.9v3.8h-4.1V6.9h-4.1v3.8h-4.1V6.9L6.4,7.8v15.9H27V7.8L22.9,6.9z M12.8,19.1h-3v-2.8
		c0.2-0.8,1-1.4,1.8-1.2c0.6,0.1,1.1,0.6,1.2,1.2V19.1z M18.2,19.1h-3v-2.8c0.1-0.8,0.8-1.5,1.6-1.4c0.7,0.1,1.3,0.7,1.4,1.4V19.1z
		 M23.7,19.1h-3.1v-2.8c0.1-0.8,0.8-1.5,1.6-1.4c0.7,0.1,1.3,0.7,1.4,1.4V19.1z"/>
</g>
</svg>
